<?xml version="1.0" encoding="UTF-8"?>
<!DOCTYPE svg PUBLIC "-//W3C//DTD SVG 1.1//EN" "http://www.w3.org/Graphics/SVG/1.1/DTD/svg11.dtd">
<!-- Creator: CorelDRAW 2019 (64-Bit) -->
<svg xmlns="http://www.w3.org/2000/svg" xml:space="preserve" width="101.6mm" height="98.2486mm" version="1.1" style="shape-rendering:geometricPrecision; text-rendering:geometricPrecision; image-rendering:optimizeQuality; fill-rule:evenodd; clip-rule:evenodd"
viewBox="0 0 6592.28 6374.82"
 xmlns:xlink="http://www.w3.org/1999/xlink"
 xmlns:xodm="http://www.corel.com/coreldraw/odm/2003">
 <defs>
  <style type="text/css">
   <![CDATA[
    .str3 {stroke:#FEFEFE;stroke-width:30.07;stroke-miterlimit:22.9256}
    .str2 {stroke:#FEFEFE;stroke-width:63.66;stroke-miterlimit:22.9256}
    .str0 {stroke:#FEFEFE;stroke-width:63.66;stroke-miterlimit:22.9256}
    .str1 {stroke:#5F80F6;stroke-width:50.93;stroke-miterlimit:22.9256}
    .fil4 {fill:none}
    .fil0 {fill:none;fill-rule:nonzero}
    .fil3 {fill:#FEFEFE}
    .fil1 {fill:#FEFEFE;fill-rule:nonzero}
    .fil2 {fill:#5F80F6;fill-rule:nonzero}
   ]]>
  </style>
   <clipPath id="id0">
    <path d="M-0 0l6592.28 0 0 6374.82 -6592.28 0 0 -6374.82z"/>
   </clipPath>
 </defs>
 <g id="Слой_x0020_1">
  <metadata id="CorelCorpID_0Corel-Layer"/>
  <g>
  </g>
  <g style="clip-path:url(#id0)">
   <g>
    <g>
     <path class="fil0 str0" d="M2960.8 2011.37l-1061.82 0c-293.19,0 -531.35,-238.16 -531.35,-530.48 0,-293.19 238.15,-531.35 531.35,-531.35l1274.19 0c58.45,0 106.63,-47.27 106.63,-105.76 0,-59.3 -48.18,-106.61 -106.63,-106.61l-1274.19 0c-410.11,0 -743.71,333.6 -743.71,743.71 0,410.11 333.6,742.83 743.71,742.83l1061.82 0c527.06,0 956.07,429.04 956.07,956.1 0,527.03 -429.01,956.07 -956.07,956.07l-2336 0c-59.34,0 -106.64,47.27 -106.64,105.76 0,59.3 47.3,106.6 106.64,106.6l2336 0c644.85,0 1168.43,-524.45 1168.43,-1168.42 0,-643.97 -523.58,-1168.46 -1168.43,-1168.46l0 0z"/>
     <path id="1" class="fil1" d="M2960.8 2011.37l-1061.82 0c-293.19,0 -531.35,-238.16 -531.35,-530.48 0,-293.19 238.15,-531.35 531.35,-531.35l1274.19 0c58.45,0 106.63,-47.27 106.63,-105.76 0,-59.3 -48.18,-106.61 -106.63,-106.61l-1274.19 0c-410.11,0 -743.71,333.6 -743.71,743.71 0,410.11 333.6,742.83 743.71,742.83l1061.82 0c527.06,0 956.07,429.04 956.07,956.1 0,527.03 -429.01,956.07 -956.07,956.07l-2336 0c-59.34,0 -106.64,47.27 -106.64,105.76 0,59.3 47.3,106.6 106.64,106.6l2336 0c644.85,0 1168.43,-524.45 1168.43,-1168.42 0,-643.97 -523.58,-1168.46 -1168.43,-1168.46l0 0z"/>
    </g>
    <g>
     <path class="fil0 str1" d="M5725.6 748.37c-52.44,-26.67 -116.07,-4.33 -142.71,47.26l-1604.36 3208.7 -1604.33 -3208.7c-25.8,-51.59 -89.42,-73.94 -142.71,-47.26 -52.47,26.64 -73.09,90.27 -47.29,142.71l1699.78 3398.71c18.05,36.11 54.16,58.45 94.56,58.45 40.44,0 76.54,-22.35 94.6,-58.45l1699.78 -3398.71c26.64,-52.44 5.14,-116.07 -47.3,-142.71z"/>
     <path id="1" class="fil2" d="M5725.6 748.37c-52.44,-26.67 -116.07,-4.33 -142.71,47.26l-1604.36 3208.7 -1604.33 -3208.7c-25.8,-51.59 -89.42,-73.94 -142.71,-47.26 -52.47,26.64 -73.09,90.27 -47.29,142.71l1699.78 3398.71c18.05,36.11 54.16,58.45 94.56,58.45 40.44,0 76.54,-22.35 94.6,-58.45l1699.78 -3398.71c26.64,-52.44 5.14,-116.07 -47.3,-142.71z"/>
    </g>
    <path class="fil2" d="M515.43 5087.88c0,-19.06 6.67,-35.25 20,-48.59 13.34,-13.34 29.54,-20.01 48.59,-20.01l855.98 0c26.67,0 51.68,5 75.03,15.01 23.34,10.01 43.82,23.58 61.45,40.73 17.62,17.15 31.44,37.15 41.44,60.02 10.01,22.87 15.01,47.63 15.01,74.31 0,26.68 -5,51.45 -15.01,74.31 -10.01,22.87 -23.82,42.87 -41.44,60.02 -17.62,17.15 -38.11,30.72 -61.45,40.73 -23.35,10.01 -48.35,15 -75.03,15l-743.09 0c-12.39,1.91 -22.87,7.62 -31.44,17.15 -8.57,9.53 -12.86,21.44 -12.86,35.73l0 121.47c0,19.05 -6.9,35.25 -20.72,48.59 -13.81,13.34 -29.78,20 -47.87,20 -19.06,0 -35.25,-6.66 -48.59,-20 -13.33,-13.34 -20,-29.54 -20,-48.59l0 -137.19c0,-23.82 4.29,-46.44 12.86,-67.88 8.58,-21.43 20.72,-40.01 36.44,-55.73 15.72,-15.72 33.82,-28.11 54.31,-37.15 20.48,-9.05 43.1,-13.58 67.88,-13.58l758.81 0c14.29,0 26.91,-5 37.87,-15 10.96,-10.01 16.44,-22.63 16.44,-37.87 0,-14.29 -5.48,-26.67 -16.44,-37.15 -10.95,-10.48 -23.58,-15.72 -37.87,-15.72l-861.7 0c-19.06,0 -35.25,-6.66 -48.59,-20 -13.33,-13.33 -20,-29.54 -20,-48.59zm2179.27 311.52c25.72,16.2 51.92,33.58 78.59,52.16 26.67,18.58 53.83,38.82 81.46,60.73 10.48,7.62 19.53,16.44 27.15,26.44 7.62,10.01 11.43,21.67 11.43,35.01 0,19.05 -6.67,35.25 -20.01,48.59 -13.33,13.34 -29.54,20 -48.59,20 -7.62,0 -15.72,-1.9 -24.29,-5.72 -8.58,-3.81 -16.68,-8.57 -24.29,-14.29 -39.06,-28.58 -79.07,-56.44 -120.04,-83.6 -40.97,-27.15 -83.6,-50.97 -127.9,-71.45 -44.3,-20.48 -90.27,-36.92 -137.9,-49.3 -47.64,-12.39 -97.18,-18.58 -148.62,-18.58l-284.38 0c-12.39,1.91 -22.87,7.62 -31.44,17.15 -8.57,9.53 -12.86,21.44 -12.86,35.73l0 121.47c0,19.05 -6.9,35.25 -20.72,48.59 -13.81,13.34 -29.78,20 -47.87,20 -19.06,0 -35.25,-6.66 -48.59,-20 -13.33,-13.34 -20,-29.54 -20,-48.59l0 -137.19c0,-23.82 4.52,-46.44 13.57,-67.88 9.05,-21.43 21.2,-40.01 36.44,-55.73 15.25,-15.72 33.34,-28.11 54.31,-37.15 20.96,-9.05 43.82,-13.58 68.59,-13.58l757.39 0c14.29,0 26.91,-5 37.87,-15 10.96,-10.01 16.44,-22.63 16.44,-37.87 0,-14.29 -5.48,-26.67 -16.44,-37.15 -10.95,-10.48 -23.58,-15.72 -37.87,-15.72l-861.7 0c-19.06,0 -35.25,-6.66 -48.59,-20 -13.33,-13.33 -20,-29.54 -20,-48.59 0,-19.06 6.67,-35.25 20,-48.59 13.34,-13.34 29.54,-20.01 48.59,-20.01l855.98 0c26.67,0 51.68,5 75.03,15.01 23.34,10.01 43.82,23.58 61.45,40.73 17.62,17.15 31.44,37.15 41.44,60.02 10.01,22.87 15.01,47.63 15.01,74.31 0,26.68 -5,51.45 -15.01,74.31 -10.01,22.87 -23.82,42.87 -41.44,60.02 -17.62,17.15 -38.11,30.72 -61.45,40.73 -23.35,10.01 -48.35,15 -75.03,15l-5.72 0zm1211.82 105.75c32.39,0 59.06,-5.95 80.02,-17.86 20.96,-11.91 37.39,-26.43 49.31,-43.58 11.91,-17.15 20,-35.97 24.29,-56.45 4.28,-20.48 6.43,-39.29 6.43,-56.44 0,-17.15 -2.15,-35.97 -6.43,-56.45 -4.29,-20.48 -12.39,-39.29 -24.29,-56.44 -11.91,-17.15 -28.34,-31.68 -49.31,-43.59 -20.96,-11.91 -47.63,-17.86 -80.02,-17.86l-577.33 0c-33.34,0 -60.25,5.96 -80.74,17.86 -20.48,11.91 -36.68,26.44 -48.59,43.59 -11.91,17.15 -20.01,35.97 -24.29,56.44 -4.29,20.48 -6.44,39.3 -6.44,56.45 0,17.15 2.15,35.97 6.44,56.44 4.28,20.48 12.38,39.3 24.29,56.45 11.91,17.15 28.1,31.68 48.59,43.58 20.48,11.91 47.39,17.86 80.74,17.86l577.33 0zm292.95 -174.34c0,36.2 -5.95,72.64 -17.86,109.32 -11.91,36.68 -29.3,70.02 -52.16,100.03 -22.86,30.01 -50.49,54.54 -82.88,73.6 -32.39,19.05 -69.07,28.58 -110.03,28.58l-651.64 0c-39.06,0 -73.83,-9.53 -104.32,-28.58 -30.48,-19.06 -56.44,-43.59 -77.88,-73.6 -21.43,-30.01 -37.87,-63.59 -49.3,-100.75 -11.43,-37.15 -17.15,-73.36 -17.15,-108.6 0,-35.25 5.96,-71.45 17.86,-108.6 11.91,-37.16 29.3,-70.74 52.16,-100.75 22.87,-30.01 50.49,-54.54 82.88,-73.6 32.39,-19.05 69.07,-28.58 110.03,-28.58l651.64 0c38.11,0 72.64,9.53 103.61,28.58 30.96,19.06 57.16,43.59 78.59,73.6 21.44,30.01 37.87,63.59 49.3,100.75 11.43,37.15 17.15,73.35 17.15,108.6zm142.9 -242.93c0,-19.06 6.67,-35.25 20,-48.59 13.34,-13.34 29.54,-20.01 48.59,-20.01l1013.17 0c19.06,0 35.25,6.67 48.59,20.01 13.33,13.33 20,29.53 20,48.59 0,19.05 -6.67,35.25 -20,48.59 -13.34,13.34 -29.54,20 -48.59,20l-1013.17 0c-19.06,0 -35.25,-6.66 -48.59,-20 -13.33,-13.33 -20,-29.54 -20,-48.59zm0 238.65c0,-25.72 7.38,-42.87 22.15,-51.45 14.77,-8.57 37.87,-12.86 69.3,-12.86l958.88 0c19.06,0 35.25,6.67 48.59,20.01 13.34,13.33 20.01,29.53 20.01,48.59 0,19.05 -6.67,35.25 -20.01,48.59 -13.33,13.34 -29.53,20 -48.59,20l-913.15 0 0 174.35c0,19.05 -6.67,35.25 -20,48.59 -13.34,13.34 -29.54,20 -48.59,20 -19.06,0 -35.25,-6.66 -48.59,-20 -13.33,-13.34 -20,-29.54 -20,-48.59l0 -247.22zm1430.45 247.22c0,19.05 -6.67,35.25 -20,48.59 -13.34,13.34 -29.54,20 -48.59,20 -19.06,0 -35.25,-6.66 -48.59,-20 -13.33,-13.34 -20,-29.54 -20,-48.59l0 -485.87c0,-19.06 6.67,-35.25 20,-48.59 13.34,-13.34 29.54,-20.01 48.59,-20.01 19.05,0 35.25,6.67 48.59,20.01 13.33,13.33 20,29.53 20,48.59l0 485.87z"/>
    <path class="fil3" d="M591.68 4615.8l5079.53 0c53.24,0 96.77,43.54 96.77,96.76l0 0c0,53.22 -43.52,96.76 -96.77,96.76l-5079.53 0c-53.24,0 -96.77,-43.54 -96.77,-96.76l0 0c0,-53.22 43.52,-96.76 96.77,-96.76z"/>
    <g>
     <path class="fil0 str2" d="M2960.87 2011.42l-1061.82 0c-28.49,0 -56.45,-2.28 -83.72,-6.61l0 214.27c27.49,3.08 55.42,4.7 83.72,4.7l1061.82 0c361.59,0 677.01,201.95 839.43,498.94l235.84 0c-178.19,-417.63 -592.75,-711.3 -1075.27,-711.3l0 0z"/>
     <path id="1" class="fil1" d="M2960.87 2011.42l-1061.82 0c-28.49,0 -56.45,-2.28 -83.72,-6.61l0 214.27c27.49,3.08 55.42,4.7 83.72,4.7l1061.82 0c361.59,0 677.01,201.95 839.43,498.94l235.84 0c-178.19,-417.63 -592.75,-711.3 -1075.27,-711.3l0 0z"/>
    </g>
    <g>
     <path class="fil0 str3" d="M1951.54 965.97l1056.08 0c31.4,0 60.14,-12.8 81.01,-33.49 20.8,-20.63 33.75,-49.1 33.75,-80.54 0,-31.7 -12.91,-60.28 -33.59,-81.08 -20.84,-20.84 -49.62,-48.7 -81.18,-48.7l-1056.08 0c-127.67,0 -219.32,243.8 0,243.8z"/>
     <path id="1" class="fil1" d="M1951.54 965.97l1056.08 0c31.4,0 60.14,-12.8 81.01,-33.49 20.8,-20.63 33.75,-49.1 33.75,-80.54 0,-31.7 -12.91,-60.28 -33.59,-81.08 -20.84,-20.84 -49.62,-48.7 -81.18,-48.7l-1056.08 0c-127.67,0 -219.32,243.8 0,243.8z"/>
    </g>
   </g>
  </g>
  <polygon class="fil4" points="-0,0 6592.28,0 6592.28,6374.82 -0,6374.82 "/>
 </g>
</svg>
